<svg width="37" height="41" viewBox="0 0 37 41" fill="none" xmlns="http://www.w3.org/2000/svg">
<path fill-rule="evenodd" clip-rule="evenodd" d="M18.5 6.31251C16.2104 6.31302 13.9672 6.95848 12.0275 8.17496C10.0878 9.39143 8.52993 11.1297 7.53249 13.1906C6.53504 15.2516 6.13831 17.5518 6.38775 19.8278C6.6372 22.1038 7.52273 24.2635 8.94289 26.0594C10.363 27.8554 12.2604 29.215 14.4176 29.9825C16.5747 30.7499 18.9044 30.8942 21.1398 30.3988C23.3752 29.9034 25.4258 28.7883 27.0567 27.1813C28.6876 25.5742 29.8329 23.5403 30.3612 21.3125H20.375C19.6291 21.3125 18.9137 21.0162 18.3863 20.4887C17.8588 19.9613 17.5625 19.2459 17.5625 18.5C17.5625 17.7541 17.8588 17.0387 18.3863 16.5113C18.9137 15.9838 19.6291 15.6875 20.375 15.6875H33.5C34.2459 15.6875 34.9613 15.9838 35.4887 16.5113C36.0162 17.0387 36.3125 17.7541 36.3125 18.5C36.3125 22.6189 34.885 26.6105 32.2731 29.7954C29.6612 32.9802 26.0262 35.1615 21.987 35.9678C17.9478 36.7741 13.754 36.1557 10.1194 34.2178C6.48489 32.2799 3.63425 29.1423 2.05278 25.3391C0.471316 21.5359 0.256759 17.3022 1.44564 13.3586C2.63451 9.41498 5.15334 6.00527 8.57336 3.70987C11.9934 1.41446 16.1032 0.375233 20.2032 0.769085C24.3033 1.16294 28.1401 2.96553 31.0606 5.87001C31.3225 6.13052 31.5305 6.44005 31.6727 6.78094C31.8149 7.12184 31.8886 7.4874 31.8896 7.85678C31.8906 8.22615 31.8188 8.5921 31.6783 8.93372C31.5378 9.27534 31.3314 9.58596 31.0709 9.84782C30.8104 10.1097 30.5009 10.3177 30.16 10.4599C29.8191 10.6021 29.4535 10.6758 29.0842 10.6768C28.3382 10.6787 27.622 10.3843 27.0931 9.85813C24.812 7.58391 21.7211 6.30858 18.5 6.31251Z" fill="#A15EAA"/>
</svg>
